<svg version="1.1" id="Layer_1" xmlns="http://www.w3.org/2000/svg" xmlns:xlink="http://www.w3.org/1999/xlink" x="0px" y="0px"
	 width="100%" viewBox="0 0 225 220" enable-background="new 0 0 225 220" xml:space="preserve">
<path fill="#000000" opacity="1.000000" stroke="none" 
	d="
M226.000000,195.000000 
	C226.000000,203.662399 226.000000,212.324783 226.000000,220.990387 
	C151.041229,220.993591 76.082466,220.993591 1.061848,220.993591 
	C1.061848,147.744080 1.061848,74.488098 1.061848,1.116057 
	C75.885506,1.116057 150.771255,1.116057 226.000000,1.116057 
	C226.000000,64.687149 226.000000,128.374924 225.734436,192.872070 
	C222.963638,188.047592 220.338028,182.463715 217.974319,176.771088 
	C208.573578,154.130859 199.293823,131.440384 189.890778,108.801117 
	C184.058899,94.760010 178.886520,80.370941 172.019394,66.848373 
	C154.486465,32.323032 119.275909,12.377520 77.895729,18.996349 
	C56.625904,22.398493 39.210476,32.508099 25.297861,49.084282 
	C7.489501,70.302048 1.553898,94.729370 6.135185,121.478531 
	C11.816452,154.650223 31.311823,176.960861 62.574394,189.246979 
	C74.121170,193.784821 86.271873,194.729813 98.321259,194.842834 
	C140.877579,195.242065 183.439926,194.999329 226.000000,195.000000 
z"/>
<path fill="#FC3C32" opacity="1.000000" stroke="none" 
	d="
M226.000000,194.666672 
	C183.439926,194.999329 140.877579,195.242065 98.321259,194.842834 
	C86.271873,194.729813 74.121170,193.784821 62.574394,189.246979 
	C31.311823,176.960861 11.816452,154.650223 6.135185,121.478531 
	C1.553898,94.729370 7.489501,70.302048 25.297861,49.084282 
	C39.210476,32.508099 56.625904,22.398493 77.895729,18.996349 
	C119.275909,12.377520 154.486465,32.323032 172.019394,66.848373 
	C178.886520,80.370941 184.058899,94.760010 189.890778,108.801117 
	C199.293823,131.440384 208.573578,154.130859 217.974319,176.771088 
	C220.338028,182.463715 222.963638,188.047592 225.734436,193.340729 
	C226.000000,193.444443 226.000000,193.888901 226.000000,194.666672 
M123.769722,41.650520 
	C110.617386,35.069599 96.507843,33.092854 82.250427,35.222157 
	C62.222366,38.213284 45.824871,48.259239 33.896416,64.733864 
	C22.557003,80.394951 18.294956,98.289452 21.322794,117.231316 
	C24.266090,135.644287 33.281143,151.005127 48.191807,162.786545 
	C64.525818,175.692551 83.115219,180.650253 103.336678,177.679016 
	C122.411659,174.876236 138.015640,165.201813 149.824493,149.695953 
	C162.187424,133.462555 166.874008,114.855125 163.678497,95.176285 
	C159.788940,71.223160 146.306381,53.242451 123.769722,41.650520 
z"/>
<path fill="#000000" opacity="1.000000" stroke="none" 
	d="
M124.112907,41.814186 
	C146.306381,53.242451 159.788940,71.223160 163.678497,95.176285 
	C166.874008,114.855125 162.187424,133.462555 149.824493,149.695953 
	C138.015640,165.201813 122.411659,174.876236 103.336678,177.679016 
	C83.115219,180.650253 64.525818,175.692551 48.191807,162.786545 
	C33.281143,151.005127 24.266090,135.644287 21.322794,117.231316 
	C18.294956,98.289452 22.557003,80.394951 33.896416,64.733864 
	C45.824871,48.259239 62.222366,38.213284 82.250427,35.222157 
	C96.507843,33.092854 110.617386,35.069599 124.112907,41.814186 
M107.330772,148.017624 
	C130.137589,139.456772 140.807983,118.596291 136.294159,96.810333 
	C129.113083,62.150913 86.430161,50.507359 62.315243,73.846786 
	C44.257118,91.324203 43.915142,121.705818 62.766899,138.947845 
	C75.373245,150.477753 90.392700,152.540359 107.330772,148.017624 
z"/>
<path fill="#2B2B2B" opacity="1.000000" stroke="none" 
	d="
M106.947113,148.133728 
	C90.392700,152.540359 75.373245,150.477753 62.766899,138.947845 
	C43.915142,121.705818 44.257118,91.324203 62.315243,73.846786 
	C86.430161,50.507359 129.113083,62.150913 136.294159,96.810333 
	C140.807983,118.596291 130.137589,139.456772 106.947113,148.133728 
z"/>
</svg>