<?xml version="1.0" standalone="no"?>
<!DOCTYPE svg PUBLIC "-//W3C//DTD SVG 1.1//EN" "http://www.w3.org/Graphics/SVG/1.1/DTD/svg11.dtd">
<!--Generator: Xara Designer (www.xara.com), SVG filter version: 6.6.0.1-->
<svg fill="none" fill-rule="evenodd" stroke="black" stroke-width="0.501" stroke-linejoin="bevel" stroke-miterlimit="10" font-family="Times New Roman" font-size="16" style="font-variant-ligatures:none" xmlns:xlink="http://www.w3.org/1999/xlink" xmlns="http://www.w3.org/2000/svg" version="1.1" overflow="visible" width="284.983pt" height="56.546pt" viewBox="94.841 -954.909 284.983 56.546">
 <defs>
	</defs>
 <g id="MouseOff" transform="scale(1 -1)">
  <g id="Group" font-size="19.402" font-family="Gilroy-Black" stroke="none">
   <path d="M 278.588,932.805 L 278.815,933.352 L 281.662,940.23 L 282.393,941.987 L 282.403,942.019 L 282.411,942.003 L 283.147,940.23 L 285.996,933.352 L 286.222,932.805 L 278.588,932.805 Z M 297.563,925.988 L 294.504,933.352 L 291.657,940.23 L 286.661,952.266 L 286.66,952.281 L 286.114,953.602 C 285.893,954.144 285.365,954.492 284.783,954.492 L 280.028,954.492 C 279.443,954.492 278.918,954.144 278.696,953.602 L 278.152,952.281 L 278.142,952.256 L 273.155,940.23 L 270.304,933.352 L 267.25,925.988 L 265.239,921.141 C 264.847,920.187 265.543,919.145 266.575,919.145 L 271.958,919.145 C 272.544,919.145 273.066,919.497 273.292,920.036 L 275.325,924.946 L 275.349,924.946 L 275.776,925.988 L 289.022,925.988 L 289.455,924.946 L 289.481,924.946 L 291.518,920.036 C 291.742,919.497 292.267,919.145 292.852,919.145 L 298.239,919.145 C 299.263,919.145 299.963,920.187 299.569,921.141 L 297.563,925.988 Z" fill-rule="nonzero" stroke-linejoin="miter" stroke-width="0.192" fill="#ffffff" marker-start="none" marker-end="none"/>
   <path d="M 102.633,939.494 L 107.832,939.494 C 108.532,939.494 109.206,939.559 109.857,939.694 C 110.507,939.827 111.087,940.052 111.607,940.368 C 112.12,940.686 112.537,941.118 112.853,941.668 C 113.172,942.219 113.327,942.909 113.327,943.741 C 113.327,944.64 113.119,945.367 112.705,945.916 C 112.289,946.465 111.756,946.889 111.108,947.19 C 110.456,947.489 109.732,947.68 108.93,947.761 C 108.133,947.847 107.363,947.888 106.632,947.888 L 102.633,947.888 L 102.633,939.494 Z M 94.841,953.043 C 94.841,953.839 95.487,954.487 96.282,954.487 L 107.982,954.487 C 109.814,954.487 111.548,954.317 113.179,953.987 C 114.808,953.65 116.236,953.076 117.451,952.262 C 118.666,951.444 119.634,950.343 120.351,948.963 C 121.067,947.581 121.425,945.841 121.425,943.741 C 121.425,941.674 121.089,939.942 120.426,938.547 C 119.758,937.144 118.839,936.029 117.675,935.197 C 116.51,934.362 115.128,933.774 113.532,933.422 C 111.931,933.073 110.2,932.897 108.332,932.897 L 102.633,932.897 L 102.633,920.549 C 102.633,919.752 101.99,919.108 101.195,919.108 L 96.282,919.108 C 95.487,919.108 94.841,919.752 94.841,920.549 L 94.841,953.043 Z" fill-rule="nonzero" stroke-linejoin="miter" stroke-width="0.192" fill="#ffffff" marker-start="none" marker-end="none"/>
   <path d="M 360.346,939.844 L 364.942,939.844 C 365.639,939.844 366.382,939.867 367.165,939.917 C 367.946,939.969 368.656,940.116 369.288,940.366 C 369.921,940.617 370.445,941.009 370.864,941.54 C 371.28,942.074 371.488,942.822 371.488,943.792 C 371.488,944.691 371.303,945.408 370.937,945.939 C 370.573,946.47 370.104,946.879 369.539,947.164 C 368.971,947.449 368.324,947.639 367.588,947.74 C 366.856,947.836 366.139,947.888 365.441,947.888 L 360.346,947.888 L 360.346,939.844 Z M 352.551,953.042 C 352.551,953.839 353.194,954.485 353.989,954.485 L 366.243,954.485 C 368.036,954.485 369.747,954.311 371.364,953.959 C 372.977,953.612 374.396,953.026 375.61,952.211 C 376.825,951.394 377.792,950.295 378.508,948.915 C 379.225,947.526 379.58,945.805 379.58,943.741 C 379.58,941.243 378.935,939.118 377.635,937.37 C 376.334,935.621 374.435,934.515 371.937,934.049 L 379.615,921.294 C 380.196,920.332 379.498,919.106 378.377,919.106 L 372.462,919.106 C 371.924,919.106 371.434,919.406 371.185,919.88 L 364.19,933.246 L 360.346,933.246 L 360.346,920.549 C 360.346,919.752 359.7,919.106 358.903,919.106 L 353.989,919.106 C 353.194,919.106 352.551,919.752 352.551,920.549 L 352.551,953.042 Z" fill-rule="nonzero" stroke-linejoin="miter" stroke-width="0.192" fill="#ffffff" marker-start="none" marker-end="none"/>
   <path d="M 134.161,939.844 L 138.759,939.844 C 139.459,939.844 140.199,939.867 140.985,939.917 C 141.766,939.969 142.471,940.116 143.105,940.366 C 143.74,940.617 144.265,941.009 144.682,941.54 C 145.097,942.074 145.306,942.822 145.306,943.792 C 145.306,944.691 145.123,945.408 144.753,945.939 C 144.388,946.47 143.923,946.879 143.357,947.164 C 142.79,947.449 142.141,947.639 141.407,947.74 C 140.676,947.836 139.958,947.888 139.261,947.888 L 134.161,947.888 L 134.161,939.844 Z M 126.368,953.042 C 126.368,953.839 127.012,954.485 127.809,954.485 L 140.06,954.485 C 141.857,954.485 143.561,954.311 145.183,953.959 C 146.797,953.612 148.211,953.026 149.429,952.211 C 150.642,951.394 151.609,950.295 152.328,948.915 C 153.042,947.526 153.402,945.805 153.402,943.741 C 153.402,941.243 152.751,939.118 151.45,937.37 C 150.151,935.621 148.255,934.515 145.756,934.049 L 153.433,921.294 C 154.01,920.332 153.318,919.106 152.195,919.106 L 146.279,919.106 C 145.743,919.106 145.25,919.406 145.004,919.88 L 138.012,933.246 L 134.161,933.246 L 134.161,920.549 C 134.161,919.752 133.517,919.106 132.717,919.106 L 127.809,919.106 C 127.012,919.106 126.368,919.752 126.368,920.549 L 126.368,953.042 Z" fill-rule="nonzero" stroke-linejoin="miter" stroke-width="0.192" fill="#ffffff" marker-start="none" marker-end="none"/>
   <path d="M 321.05,919.125 L 321.02,919.125 L 321.05,919.125 Z" fill-rule="nonzero" stroke-linejoin="miter" stroke-width="0.192" fill="#ffffff" marker-start="none" marker-end="none"/>
   <path d="M 323.631,919.125 L 323.542,919.125 L 323.631,919.125 Z" fill-rule="nonzero" stroke-linejoin="miter" stroke-width="0.192" fill="#ffffff" marker-start="none" marker-end="none"/>
   <path d="M 324.726,954.473 C 325.756,954.473 326.454,953.43 326.064,952.482 L 313.393,921.812 L 312.637,919.985 C 312.414,919.447 311.888,919.096 311.306,919.096 L 306.98,919.096 C 306.395,919.096 305.87,919.447 305.646,919.989 L 304.888,921.818 L 292.223,952.482 C 291.829,953.43 292.527,954.473 293.553,954.473 L 298.939,954.473 C 299.522,954.473 300.05,954.119 300.273,953.583 L 309.139,932.11 L 318.006,953.583 C 318.23,954.119 318.755,954.473 319.338,954.473 L 324.726,954.473 Z" fill-rule="nonzero" stroke-linejoin="miter" stroke-width="0.192" fill="#ffffff" marker-start="none" marker-end="none"/>
   <path d="M 242.939,954.473 C 243.966,954.473 244.666,953.43 244.274,952.482 L 231.607,921.812 L 230.85,919.985 C 230.626,919.447 230.101,919.096 229.516,919.096 L 225.192,919.096 C 224.61,919.096 224.082,919.447 223.855,919.989 L 223.1,921.818 L 218.208,933.667 L 213.311,921.812 L 212.554,919.985 C 212.33,919.447 211.805,919.096 211.222,919.096 L 206.895,919.096 C 206.313,919.096 205.789,919.447 205.562,919.989 L 204.809,921.818 L 192.139,952.482 C 191.747,953.43 192.443,954.473 193.475,954.473 L 198.857,954.473 C 199.436,954.473 199.966,954.119 200.189,953.583 L 209.058,932.11 L 213.954,943.965 L 210.437,952.48 C 210.042,953.43 210.741,954.473 211.769,954.473 L 217.152,954.473 C 217.733,954.473 218.262,954.119 218.485,953.583 L 222.459,943.958 L 227.352,932.11 L 236.22,953.583 C 236.443,954.119 236.97,954.473 237.551,954.473 L 242.939,954.473 Z" fill-rule="nonzero" stroke-linejoin="miter" stroke-width="0.192" fill="#ffffff" marker-start="none" marker-end="none"/>
   <path d="M 173.473,922.271 C 165.349,922.271 158.752,928.869 158.752,936.995 C 158.752,945.105 165.349,951.714 173.473,951.714 C 181.586,951.714 188.183,945.105 188.183,936.995 C 188.183,928.869 181.586,922.271 173.473,922.271 Z M 190.363,942.925 C 190.363,942.897 190.378,942.874 190.378,942.846 C 187.955,949.868 181.295,954.909 173.473,954.909 C 163.58,954.909 155.568,946.874 155.568,936.983 C 155.568,927.101 163.58,919.077 173.473,919.077 C 173.624,919.077 173.788,919.077 173.937,919.09 L 200.26,919.102 L 190.363,942.925 Z" fill-rule="nonzero" stroke-linejoin="miter" stroke-width="0.192" fill="#ffffff" marker-start="none" marker-end="none"/>
   <path d="M 301.735,919.375 L 301.709,919.375 L 301.735,919.375 Z" fill-rule="nonzero" stroke-linejoin="miter" stroke-width="0.192" fill="#ffffff" marker-start="none" marker-end="none"/>
   <path d="M 284.843,919.375 L 284.755,919.375 L 284.843,919.375 Z" fill-rule="nonzero" stroke-linejoin="miter" stroke-width="0.192" fill="#ffffff" marker-start="none" marker-end="none"/>
   <path d="M 338.306,947.581 L 335.261,940.209 L 345.448,940.209 C 346.248,940.209 346.892,939.561 346.892,938.766 L 346.892,934.756 C 346.892,933.96 346.248,933.31 345.448,933.31 L 332.412,933.31 L 329.349,925.928 L 345.448,925.928 C 346.248,925.928 346.892,925.282 346.892,924.482 L 346.892,920.476 C 346.892,919.675 346.248,919.032 345.448,919.032 L 320.1,919.032 C 319.072,919.032 318.375,920.073 318.769,921.028 L 320.793,925.928 L 323.853,933.31 L 326.703,940.209 L 329.751,947.581 L 332.227,953.583 C 332.451,954.119 332.978,954.476 333.563,954.476 L 345.448,954.476 C 346.248,954.476 346.892,953.827 346.892,953.036 L 346.892,949.021 C 346.892,948.227 346.248,947.581 345.448,947.581 L 338.306,947.581 Z" fill-rule="nonzero" stroke-linejoin="miter" stroke-width="0.192" fill="#ffffff" marker-start="none" marker-end="none"/>
   <path d="M 256.4,947.575 L 253.358,940.203 L 265.35,940.203 C 266.377,940.203 267.077,939.162 266.684,938.211 L 265.031,934.213 C 264.806,933.671 264.281,933.32 263.698,933.32 L 250.51,933.32 L 247.445,925.924 L 259.447,925.924 C 260.477,925.924 261.174,924.879 260.784,923.93 L 259.127,919.931 C 258.906,919.39 258.377,919.039 257.796,919.039 L 238.205,919.039 C 237.178,919.039 236.479,920.084 236.874,921.032 L 238.893,925.924 L 241.947,933.32 L 244.791,940.203 L 247.847,947.575 L 250.327,953.583 C 250.55,954.119 251.075,954.473 251.659,954.473 L 271.244,954.473 C 272.266,954.473 272.968,953.43 272.572,952.482 L 270.918,948.468 C 270.694,947.93 270.167,947.575 269.586,947.575 L 256.4,947.575 Z" fill-rule="nonzero" stroke-linejoin="miter" stroke-width="0.192" fill="#ffffff" marker-start="none" marker-end="none"/>
   <path d="M 182.381,936.993 C 182.381,932.068 178.386,928.074 173.473,928.074 C 168.546,928.074 164.552,932.068 164.552,936.993 C 164.552,941.907 168.546,945.91 173.473,945.91 C 178.386,945.91 182.381,941.907 182.381,936.993 Z" fill="#fc3c32" fill-rule="nonzero" stroke-linejoin="miter" stroke-width="0.192" marker-start="none" marker-end="none"/>
   <rect x="106.746" y="904.509" width="26.062" height="2.061" fill="#fc3c32" stroke-width="0.192" fill-rule="nonzero" stroke-linejoin="miter"/>
   <text xml:space="preserve" transform="translate(139.09 898.652) scale(1 -1)" kerning="auto" fill="#ffffff" stroke-width="0.25" stroke-linecap="round" stroke-linejoin="round"><tspan x="0" y="0">Your I.T. Career Starts Here</tspan></text>
  </g>
 </g>
</svg>
